<svg xmlns="http://www.w3.org/2000/svg" viewBox="0 0 87.18 84.42">
  <path
    d="M87.18 10.32C80.52 16.27 75.46 23.49 70.64 31c-.12-.08-6.28 10.54-6.83 11.54l1.68-3.15q1.11-1.91 2.24-3.8c5-8.14 9.94-15.76 16.3-22.89a87.42 87.42 0 0 0-7.19 8.43 96 96 0 0 1 9.61-11.62 67.1 67.1 0 0 0-9.45 10c.13-.17 3.78-5 5.78-7.35a79.84 79.84 0 0 0-5.94 6.65 84.52 84.52 0 0 1 8.93-10.2 64.74 64.74 0 0 0-7.21 7.51A134.35 134.35 0 0 0 69.86 28s-3.39 5-5 7.61c0 0 4.15-6.89 6.35-10.26 0 0 2.92-4.28 4.45-6.38 2-2.71 4-5.23 6.27-7.74 0 0-.68.69-1 1.05 0 0 2.67-3 4.11-4.44a61 61 0 0 0-7.42 7.49l1.49-1.92C72.25 21 67.11 28.9 62 37.71c-3 5.3-5.82 10.56-8.51 16 0 0-3.29 6.48-4.88 9.8 1.23-2.58 4.18-8.74 5.88-12.18 0 0 3.63-7 5.52-10.4l.95-1.69c1.92-3.27 3.87-6.5 5.88-9.72 5.07-8 10.18-15.48 16.75-22.3a77 77 0 0 0-10.84 12 111.63 111.63 0 0 1 7.7-9.66 88.1 88.1 0 0 0-6.15 7.08c2-2.64 4-5.1 6.21-7.55a95.54 95.54 0 0 0-8.23 9.73s3.44-4.8 5.28-7.1l-.06.06s1-1.16 1.49-1.74c-1.59 1.69-3 3.39-4.5 5.19A160.75 160.75 0 0 0 60.1 36.38s-2.81 5-3.06 5.44c0 0-3 5.39-4.43 8.13l-.45.85s1.81-3.63 2.73-5.44c3.26-5.8 6.57-11.46 10.1-17.1 5.18-8.13 10.38-15.75 17.12-22.69a66.46 66.46 0 0 0-6.73 6.8 86.11 86.11 0 0 1 6.39-7.24 64 64 0 0 0-5.56 5.49s1.79-2.1 2.73-3.11A107.91 107.91 0 0 0 67.25 22s-.85 1.21-1.25 1.81A139.35 139.35 0 0 1 77.38 8.5a119.11 119.11 0 0 0-11.75 15.1A143.57 143.57 0 0 1 77 8.3a122.39 122.39 0 0 0-12.08 15.61L63 26.67A162 162 0 0 1 75.69 9c-2.28 2.52-4.31 5-6.34 7.75a103.72 103.72 0 0 1 11-13.3c-5.93 5.21-10.29 10.8-14.8 17.25 2.83-4.27 5.66-8.27 8.87-12.27-2 2.13-3.76 4.26-5.54 6.54 2.1-2.87 4.21-5.56 6.55-8.25-7.16 7.77-12.51 15.85-17.93 24.89-.09-.05-5.56 9.85-6.06 10.78l1.61-3.13q1.77-3.15 3.58-6.27A203.63 203.63 0 0 1 72.05 9.92a84.27 84.27 0 0 1 7.5-8.19A80.91 80.91 0 0 0 69.17 13c2-2.69 4-5.23 6.16-7.76A106.66 106.66 0 0 0 64 19.06c2.83-4.24 5.65-8.21 8.85-12.18-7 7.69-12.24 15.52-17.55 24.43 0 0 1.93-3.45 2.92-5.16 0 0-2 3.08-3 4.65 1.44-2.42 2.9-4.8 4.4-7.17C65.2 15 70.7 7.15 78.16 0A83.29 83.29 0 0 0 67.5 11.55c2-2.75 4.06-5.33 6.3-7.91-7.56 7.72-13.06 15.81-18.65 25-6.29 10.67-11.7 21.19-16.93 32.24v-.73s-.07.51-.12 1.06c-.11.22-.21.45-.32.68 0-.54-.08-1.1-.09-1.51a17.86 17.86 0 0 0-.16 2L37 63.53s-.14-1.24-.2-1.87c0 0 0 .55-.05.82 0 0-.18-1.41-.25-2.11a16.61 16.61 0 0 0-.26 4.81v.07l-.43-1.93s-.08 1.37-.07 2.06c0 0-.39-2.09-.56-3.15 0 0-.08-1.3-.1-2a21.66 21.66 0 0 0-.1 4.48v.32c0 .11-.33-2.94-.4-4.41a22.77 22.77 0 0 0-.1 3.6s-.09-.59-.13-.87c0 0 0 1.61.08 2.41 0 0-.46-2.66-.69-4.13.44-.95.85-1.81.93-2l.56-1.12a84.85 84.85 0 0 0 4.68-11.24l-1.8 3.44s1.54-3.69 2.17-5.58c0 0-3.26 7-4.94 10.5l-2.4 4.94.51-1.23c.05-.1.83-1.66.83-1.67a116 116 0 0 0 4.83-11S37.68 49.58 37 51a54.81 54.81 0 0 0 2.24-6.26s-1.84 3.65-2.74 5.46c0 0 1-2.51 1.35-3.78 0 0-1.19 2.24-1.77 3.37 0 0 1.5-3.61 2.11-5.46 0 0-1.24 2.73-1.88 4.09 0 0-1.79 3.65-2.69 5.47 0 0-1.24 2.18-1.85 3.27 0 0 1.42-3 2.08-4.51 0 0 .87-1.95 1.28-2.93 0 0 1.06-2.57 1.53-3.87l-.26.55s.55-1.64.77-2.47l-2 4 .33-.93c-1.94 3.57-3.8 7.17-5.63 10.81 0 0-.72 1.45-1.31 2.68a2.11 2.11 0 0 0 0-.26c0 .15 0 .28-.06.43-.38.81-.71 1.48-.73 1.47l-.3.63v-.28l.21-.4s1.3-2.66 1.41-2.91l.37-.72c.73-1.38 1.43-2.75 2.12-4.15a67.53 67.53 0 0 0 4.21-10.54s-2 3.89-3 5.84c0 0 1.29-3 1.85-4.6L33 48.34s1-2.41 1.42-3.63c0 0-1.46 3-2.2 4.57 0 0 .84-2.19 1.2-3.31s.22-.57.32-.85c0 0-.78 1.63-1.18 2.44 0 0-3.16 6-4.68 9.06L26.75 59s-1.09 2-1.1 2l-.88 1.68-.24.44s1-2.18 1-2.17l.25-.55c1.34-2.37 2.58-4.73 3.78-7.18a65.64 65.64 0 0 0 4.14-10.36s-1.12 2.19-1.7 3.29c0 0 .83-2.32 1.17-3.5l-1.34 2.64.55-1.47s-2.07 4.3-3.12 6.45l-.41.75s2-4.46 2.84-6.76c0 0-2.14 4.39-3.22 6.58.07-.13 2-4.46 2.82-6.7L28 50.9l-.63 1.1s2.31-5 3.27-7.63c0 0-1.09 2.25-1.65 3.37 0 0 1.59-3.93 2.16-6 0 0-2.53 5-3.77 7.49 0 0 1.42-3.48 2-5.27 0 0-1 1.84-1.5 2.77 0 0 1-2.36 1.41-3.56 0 0-3.37 6.9-5.08 10.35L22 58l.56-1.31s1.32-2.58 1.31-2.58c1.56-3.16 3-6.29 4.32-9.57 0 0 .94-2.38 1.33-3.59 0 0-1.49 3.23-2.26 4.83 0 0 .82-2.19 1.16-3.31 0 0-2 3.78-3 5.69 0 0 1.36-3.35 1.91-5.08 0 0-3.49 6.55-5.15 9.86 0 0 .59-1.41.86-2.12L22 52.69c.49-.95 1-1.91 1.43-2.88a80.87 80.87 0 0 0 4.06-9.66s-1.46 3.14-2.2 4.71c0 0 .79-2.15 1.12-3.25 0 0-3.48 6.6-5.13 10l-2.86 5.75s-.46.95-1.15 2.29c-.07-.43-.13-.83-.13-.83a111.58 111.58 0 0 1-1.33-21.69 89.69 89.69 0 0 1 2.27-16.47 48.72 48.72 0 0 0-2.14 7.6s.49-3 .81-4.51a60.26 60.26 0 0 0-1.49 7.16s.11-1.35.18-2c0 0-.66 3.45-.88 5.19v-.48a83.49 83.49 0 0 1 2.65-15.06 51.78 51.78 0 0 0-3.46 13.87v.2c0-.13.32-3.88.56-5.76 0 0-.76 3.49-1 5.26 0 0 .29-3 .49-4.55a71 71 0 0 1 2.13-9.21 56.89 56.89 0 0 0-1.93 6.3s-.67 2.7-.93 4.07A74 74 0 0 1 15.15 19a57.22 57.22 0 0 0-2.34 8.93s.11-.72.16-1.07a77.4 77.4 0 0 0-1.45 17.54V45.3a107.47 107.47 0 0 1 .68-16.73s.62-3.94 1-5.88c0 0-.44 1.68-.64 2.53 0 0 .85-4.39 1.44-6.55a59 59 0 0 0-3.45 15.74c0-.14.3-4.65.57-6.92-.46 2.12-.79 4.14-1.05 6.29.23-3.35.57-6.48 1.12-9.78 0 0 .87-3.91 1.44-5.83a62.38 62.38 0 0 0-3 13.35s-.09.65-.13 1a81.07 81.07 0 0 1 2.35-13.3 62.67 62.67 0 0 0-2.47 10.61s.21-1.78.33-2.66c-.47 2.44-.79 4.77-1 7.25a102.06 102.06 0 0 1 1.6-12.92 62.07 62.07 0 0 0-2.08 9.34s.56-4.62 1-6.91c0 0-.33 1.4-.47 2.11A84.07 84.07 0 0 1 11 15.89a56.3 56.3 0 0 0-3.2 10.85v-.31c0-.1-.29 1.32-.42 2A80.53 80.53 0 0 1 9.56 18.1 65.31 65.31 0 0 0 7 28.69s-.26 1.48-.37 2.22a99 99 0 0 1 1.42-9.85s.88-3.39 1.41-5.06a63.78 63.78 0 0 0-3.09 11.91 74.68 74.68 0 0 0-1.13 11.55A98.55 98.55 0 0 1 6.86 23c0 .09-.59 2.57-.82 3.83 0 0 .13-.91.2-1.36 0 0-.72 3.87-1 5.82a90.92 90.92 0 0 1 3-16 61.7 61.7 0 0 0-4 16.27S4.7 27.17 5 25c0 0-.42 1.86-.6 2.8 0-.14.72-4.65 1.21-6.9 0 0-.87 3.49-1.2 5.25v-.18a91.78 91.78 0 0 1 1.83-9.11A65.56 65.56 0 0 0 2.68 33.5c0-.14.28-4.5.52-6.68 0 0-.29 1.45-.42 2.19 0-.07.22-1.9.35-2.82 0 .12-.59 3.41-.79 5.09A86.49 86.49 0 0 1 5 16.91s-1.12 3.65-1.55 5.51l.06-.36a72.85 72.85 0 0 0-2.3 14c.14-3 .37-5.95.75-9A91.34 91.34 0 0 0 .69 45.61s0 3.35.08 5c-.18-2.8-.28-5.55-.3-8.36a106.82 106.82 0 0 1 1.71-20A84.4 84.4 0 0 0 0 42.27a112.93 112.93 0 0 0 1.67 18.26l.08.54c.09.66.2 1.32.3 2 1.07 6.21 2.8 14.81 5.32 20.64 0 0-.67-3-1-4.42a43.21 43.21 0 0 0 1.74 5.15A41.59 41.59 0 0 0 7.15 80c.39 1.22.79 2.41 1.22 3.53 0 0-1-3.74-1.47-5.61-.13-.47 1.68 5.85 2.23 6.11a49.63 49.63 0 0 0-1.24-5.46s.94 3 1.6 4.43c0 0-.65-2.86-1-4.28a41.06 41.06 0 0 0 1.69 4.95c0-.24-.74-2.9-.84-3.23 0 0-.06-.27-.17-.72.12-.21.25-.42.38-.63.32 1.05.82 2.62 1.19 3.57l-.12-.48s.43 1.11.59 1.14a17.8 17.8 0 0 0-.66-3.21s.27.74.42 1.1l-.33-1.5.36-.67c.06.18.11.36.17.53l-.24.63.28-.51a12.5 12.5 0 0 0 1.32 3.14 14.81 14.81 0 0 0-.44-2.3l.15-.25c.21.64.43 1.25.62 1.73l-.51-1.92.08-.12c.24.73.51 1.51.73 2 0 0-.27-1-.6-2.27.06-.1.11-.2.17-.29.15.43.3.84.44 1.17s.11.32.21.59a.26.26 0 0 0 0 .08v-.07l.08.2-.06-.22.41-.75c.06.18.13.34.19.5l-.07.18L14 81a4.93 4.93 0 0 0 .62 1.18 7.87 7.87 0 0 0-.3-1.76l.05-.1a6.6 6.6 0 0 0 .79 1.68 9.46 9.46 0 0 0-.34-1.83s.29.84.46 1.24c0 0-.19-.74-.48-1.84l.22-.38c.1.3.19.6.29.88l-.2.58.26-.42c.07.2.14.4.21.58 0 0-.06-.24-.17-.65l.24-.39.26.73a11 11 0 0 0-.65 2.08 26.41 26.41 0 0 0 1.46-2.33l.13.33c-.27.62-.53 1.24-.7 1.71l.85-1.47a1.19 1.19 0 0 0 .3.46 5.14 5.14 0 0 0-.12-.78l.68-1.24a3 3 0 0 0 .13.36c-.3.71-.59 1.43-.77 2 0 0-.4.94-.53 1.42l1.85-3.39.17.48c-.17.36-.32.71-.46 1 0 0 .26-.44.51-.9.06.14.11.26.15.34a12.52 12.52 0 0 0-1 3A37.8 37.8 0 0 0 20.58 79l.06.18c-.25.59-.52 1.23-.69 1.69l.76-1.21s-.89 1.88-1.28 2.85c0 0 .76-1.33 1.13-2v.08a21.88 21.88 0 0 0-1.18 3.19 66 66 0 0 0 3.89-6.67s-1.05 2.32-1.52 3.51l.63-1s-.42.89-.62 1.33l1.38-2.42a57.9 57.9 0 0 0-2.61 5.65s.6-1 .89-1.55a1.23 1.23 0 0 0-.05.13c1.39-2.12 2.65-4.34 3.87-6.56-.05.1-1.58 3.19-2.29 4.77 0 0 2.37-4.26 4.34-7.89a2.45 2.45 0 0 0 .08.29l-4.87 9.8c1.73-3 3.38-6.08 5-9.16.2.73.42 1.46.67 2.21l.14.57A43.35 43.35 0 0 0 30 82.11s0-1.21-.1-1.82c0 0 .49 1.83.74 2.74a33.46 33.46 0 0 0-.93-5.35s-.61-2.32-.67-2.54l.27.67.21.85s1.34 4.91 1.48 5.41c0 0-.18-1.53-.32-2.28 0 0 .65 2.06 1 3.07a17.55 17.55 0 0 0-.21-3s.44 1.24.68 1.85c0 0-.05-1.25-.12-1.88 0 0 .51 1.9.76 2.86 0 0-.15-1.54-.28-2.29 0 0-.1-.62-.22-1.32.09-.16.2-.34.31-.55.08.32.19.7.27 1 0 0 .08.31.19.7l.37 1.31v-.32s.3.89.46 1.32c0 0 0-1.57-.13-2.36l.19.49c0-.29 0-.55-.06-.83s.24-.48.37-.74c.15.49.31 1 .46 1.44a1.6 1.6 0 0 0 0 .27l.09-.12c.23.72.42 1.3.47 1.44a18.94 18.94 0 0 0-.11-2l.15-.26c.13.46.26 1 .36 1.3 0 0-.11-.89-.21-1.58a.21.21 0 0 1 0-.06c.12.45.33 1.21.46 1.67 0 0-.14-1.11-.28-2 0-.05.05-.09.07-.14.14.38.33.9.46 1.23l.09.31a7.63 7.63 0 0 0-.25.83c.24-.39.51-.91.8-1.48l.09.3c-.15.43-.28.82-.38 1.16l.45-1c.22.7.4 1.24.45 1.39 0 0 0-1.33-.12-2.08.06.17.2.63.36 1.1v.14l.06-.1c.1.32.21.64.29.88 0 0 0-.68-.07-1.28a.75.75 0 0 1 .07-.12l.13.5c0-.21 0-.4-.08-.6l.29-.53c.06.23.12.45.18.64l-.12-.76.22-.42c0 .17.09.32.13.48s-.09.24-.13.35l.14-.31v.12c-.39 1-.89 2.48-.71 2.56a10.57 10.57 0 0 0 1.55-2.72 2.58 2.58 0 0 0 .08.26 26 26 0 0 0-.9 2.51c.35-.61.7-1.32 1-2q.09.3.18.57l-.27.86a5.44 5.44 0 0 0-.34 1.11 31.26 31.26 0 0 0 1.6-3.29l.07.22a2.51 2.51 0 0 1 0-.27l.32-.71c0 .11.07.3.14.54-.26.63-.49 1.22-.69 1.76l.74-1.55V79.88v-.12l.09.34c-.66 1.67-1.19 3.19-1 3.37A9.34 9.34 0 0 0 42 81.09v.06-.08c.48-1 1-2.11 1.47-3.12l.06.23c-.31.81-.62 1.65-.83 2.26 0 0 .63-1.2.92-1.8l-1.51 3.88s.85-1.78 1.27-2.68v.1a22.57 22.57 0 0 0-1.25 3.79A24.94 24.94 0 0 0 44 80.17c.09.32.15.56.17.65l-.1-.79c.1-.21.2-.43.31-.65 1-2 1.88-4.16 2.37-5.2 0 0-1.5 3.66-2.17 5.53l.79-1.55s-.55 1.34-.81 2c0 0 1.2-2.53 1.8-3.81a76 76 0 0 0-3.14 7.77s.59-1.15.86-1.73l-.05.17c1.81-3.35 3.47-7 5.11-10.43 0 0-2.26 5.15-3.31 7.76 0 0 5.93-12.57 9-18.8 0 0 2.41-4.51 3.63-6.76a419.05 419.05 0 0 0-5.54 11c-2.68 5.72-5.43 11.67-7.66 17.51 2.75-5.72 5.37-11.52 8.11-17.26 4.29-8.89 8.68-17.53 13.49-26.15l1.5-2.55a178.57 178.57 0 0 1 16-23.09 79.4 79.4 0 0 0-5.79 6.51 82.21 82.21 0 0 1 8.61-9.98z"
    fill="#6f2d91"></path>
</svg>

